<?xml version="1.0" encoding="UTF-8" standalone="no"?>
<svg
   xmlns:dc="http://purl.org/dc/elements/1.1/"
   xmlns:cc="http://creativecommons.org/ns#"
   xmlns:rdf="http://www.w3.org/1999/02/22-rdf-syntax-ns#"
   xmlns:svg="http://www.w3.org/2000/svg"
   xmlns="http://www.w3.org/2000/svg"
   xmlns:sodipodi="http://sodipodi.sourceforge.net/DTD/sodipodi-0.dtd"
   xmlns:inkscape="http://www.inkscape.org/namespaces/inkscape"
   id="svg26"
   version="1.1"
   viewBox="-5 -5 310 310"
   sodipodi:docname="Rebel-Real-deop.svg"
   inkscape:version="0.92.2 (unknown)">
  <sodipodi:namedview
     pagecolor="#ffffff"
     bordercolor="#666666"
     borderopacity="1"
     objecttolerance="10"
     gridtolerance="10"
     guidetolerance="10"
     inkscape:pageopacity="0"
     inkscape:pageshadow="2"
     inkscape:window-width="1920"
     inkscape:window-height="1025"
     id="namedview15"
     showgrid="false"
     inkscape:zoom="2.1532542"
     inkscape:cx="76.33168"
     inkscape:cy="222.36435"
     inkscape:window-x="0"
     inkscape:window-y="27"
     inkscape:window-maximized="1"
     inkscape:current-layer="g831" />
  <metadata
     id="metadata30">
    <rdf:RDF>
      <cc:Work
         rdf:about="">
        <dc:format>image/svg+xml</dc:format>
        <dc:type
           rdf:resource="http://purl.org/dc/dcmitype/StillImage" />
        <dc:title />
      </cc:Work>
    </rdf:RDF>
  </metadata>
  <defs
     id="defs5">
    <g
       id="rebel">
      <path
         id="path2"
         d="M7.42,145.986C9.185,99.193,32.899,56.035,76.25,27.516c0.128,0.048,1.251-0.361,0.738,0.61 c-3.434,3.184-65.172,76.114-8.344,133.68c0,0,29.858,28.704,53.011,1.468c0,0,22.847-29.577-0.289-74.413 c0,0-5.856-14.64-26.955-23.721l16.992-18.748c0,0,14.359,6.161,25.478,22.871c0,0,0.593-17.593-12.884-36.34l26.345-29.89 l26.08,29.609c0,0-11.993,16.991-12.876,36.902c0,0,8.191-13.477,25.776-23.151l16.686,18.748c0,0-16.045,5.287-26.794,23.529 c-9.242,16.902-16.357,53.05,0.416,75.223c0,0,18.772,26.618,51.792-1.571c0,0,60.712-54.399-6.226-133.048 c0,0-3.658-3.233,0.449-1.476c29.586,21.54,65.012,49.946,68.67,120.837c-1.444,85.966-59.012,147.334-143.074,147.334 C68.934,295.968,4.95,227.283,7.42,145.986"
         stroke-width="5"
         stroke-linecap="round"
         style="fill: inherit;" />
    </g>
  </defs>
  <clipPath
     id="a">
    <path
       id="use7"
       stroke="black"
       fill="white"
       d="M7.42,145.986C9.185,99.193,32.899,56.035,76.25,27.516c0.128,0.048,1.251-0.361,0.738,0.61 c-3.434,3.184-65.172,76.114-8.344,133.68c0,0,29.858,28.704,53.011,1.468c0,0,22.847-29.577-0.289-74.413 c0,0-5.856-14.64-26.955-23.721l16.992-18.748c0,0,14.359,6.161,25.478,22.871c0,0,0.593-17.593-12.884-36.34l26.345-29.89 l26.08,29.609c0,0-11.993,16.991-12.876,36.902c0,0,8.191-13.477,25.776-23.151l16.686,18.748c0,0-16.045,5.287-26.794,23.529 c-9.242,16.902-16.357,53.05,0.416,75.223c0,0,18.772,26.618,51.792-1.571c0,0,60.712-54.399-6.226-133.048 c0,0-3.658-3.233,0.449-1.476c29.586,21.54,65.012,49.946,68.67,120.837c-1.444,85.966-59.012,147.334-143.074,147.334 C68.934,295.968,4.95,227.283,7.42,145.986"
       stroke-width="5"
       stroke-linecap="round" />
  </clipPath>
  <g
     id="g831">
    <path
       d="M 0,0 H 300 V 60 H 0 Z"
       id="path10"
       clip-path="url(#a)"
       inkscape:connector-curvature="0"
       style="fill:#5bcefa" />
    <path
       d="m 0,60 h 300 v 60 H 0 Z"
       id="path12"
       clip-path="url(#a)"
       inkscape:connector-curvature="0"
       style="fill:#f5a9b8" />
    <path
       d="m 0,120 h 300 v 60 H 0 Z"
       id="path14"
       clip-path="url(#a)"
       inkscape:connector-curvature="0"
       style="fill:#ffffff" />
    <path
       d="m 0,180 h 300 v 60 H 0 Z"
       id="path16"
       clip-path="url(#a)"
       inkscape:connector-curvature="0"
       style="fill:#f5a9b8" />
    <path
       d="m 0,240 h 300 v 60 H 0 Z"
       id="path18"
       clip-path="url(#a)"
       inkscape:connector-curvature="0"
       style="fill:#5bcefa" />
    <path
       x="0"
       y="0"
       d="M 7.42,145.986 C 9.185,99.193 32.899,56.035 76.25,27.516 c 0.128,0.048 1.251,-0.361 0.738,0.61 -3.434,3.184 -65.172,76.114 -8.344,133.68 0,0 29.858,28.704 53.011,1.468 0,0 22.847,-29.577 -0.289,-74.413 0,0 -5.856,-14.64 -26.955,-23.721 l 16.992,-18.748 c 0,0 14.359,6.161 25.478,22.871 0,0 0.593,-17.593 -12.884,-36.34 l 26.345,-29.89 26.08,29.609 c 0,0 -11.993,16.991 -12.876,36.902 0,0 8.191,-13.477 25.776,-23.151 l 16.686,18.748 c 0,0 -16.045,5.287 -26.794,23.529 -9.242,16.902 -16.357,53.05 0.416,75.223 0,0 18.772,26.618 51.792,-1.571 0,0 60.712,-54.399 -6.226,-133.048 0,0 -3.658,-3.233 0.449,-1.476 29.586,21.54 65.012,49.946 68.67,120.837 -1.444,85.966 -59.012,147.334 -143.074,147.334 C 68.934,295.968 4.95,227.283 7.42,145.986"
       id="use22"
       inkscape:connector-curvature="0"
       style="fill:#5bcefa;stroke:#ff0000;stroke-width:5;stroke-linecap:round;fill-opacity:0.14545454" />
    <path
       x="0"
       y="0"
       d="m -495.19317,-19.696234 c 1.765,-46.792997 25.479,-89.950996 68.83,-118.469996 0.128,0.048 1.251,-0.361 0.738,0.61 -3.434,3.184 -65.172,76.113999 -8.344,133.6799963 0,0 29.858,28.7039997 53.01101,1.468 0,0 22.847,-29.5769973 -0.289,-74.4129973 0,0 -5.856,-14.64 -26.95501,-23.720999 l 16.99201,-18.748 c 0,0 14.359,6.161 25.478,22.870999 0,0 0.593,-17.592999 -12.884,-36.339999 l 26.345,-29.89 26.08,29.609 c 0,0 -11.993,16.991 -12.876,36.901999 0,0 8.191,-13.476999 25.776,-23.150999 l 16.686,18.748 c 0,0 -16.045,5.286999 -26.794,23.528999 -9.242,16.902 -16.357,53.05 0.416,75.2229973 0,0 18.772,26.6179997 51.792,-1.571 0,0 60.712,-54.3989973 -6.226,-133.0479963 0,0 -3.658,-3.233 0.449,-1.476 29.586,21.54 65.012,49.945999 68.67,120.836996 -1.444,85.966 -59.012,147.334004 -143.074,147.334004 -82.30701,-10e-4 -146.29101,-68.686004 -143.82101,-149.983004"
       id="use22-6"
       inkscape:connector-curvature="0"
       style="fill:none;stroke:#ff0000;stroke-width:5;stroke-linecap:round" />
  </g>
</svg>
