<?xml version="1.0" encoding="UTF-8" standalone="no"?>
<!-- Generator: Adobe Illustrator 13.0.0, SVG Export Plug-In . SVG Version: 6.00 Build 14948)  -->

<svg
   xmlns:dc="http://purl.org/dc/elements/1.1/"
   xmlns:cc="http://creativecommons.org/ns#"
   xmlns:rdf="http://www.w3.org/1999/02/22-rdf-syntax-ns#"
   xmlns:svg="http://www.w3.org/2000/svg"
   xmlns="http://www.w3.org/2000/svg"
   xmlns:sodipodi="http://sodipodi.sourceforge.net/DTD/sodipodi-0.dtd"
   xmlns:inkscape="http://www.inkscape.org/namespaces/inkscape"
   inkscape:version="0.92.2 (unknown)"
   sodipodi:docname="Rebel_Alliance_logo.svg.2017_12_26_04_22_55.0.svg"
   xml:space="preserve"
   viewBox="0 0 302.3622 302.36221"
   height="80mm"
   width="80mm"
   y="0px"
   x="0px"
   id="Layer_1"
   version="1.1"><metadata
     id="metadata11"><rdf:RDF><cc:Work
         rdf:about=""><dc:format>image/svg+xml</dc:format><dc:type
           rdf:resource="http://purl.org/dc/dcmitype/StillImage" /><dc:title /></cc:Work></rdf:RDF></metadata><defs
     id="defs9"><clipPath
       clipPathUnits="userSpaceOnUse"
       id="clipPath890"><g
         id="use892"
         inkscape:label="Clip"
         style="fill:#b88100"><g
           style="fill:#ffc022"
           id="g902"><path
             style="fill:#ffc022"
             id="path900"
             d="M 7.42,145.986 C 9.185,99.193 32.899,56.035 76.25,27.516 c 0.128,0.048 1.251,-0.361 0.738,0.61 -3.434,3.184 -65.172,76.114 -8.344,133.68 0,0 29.858,28.704 53.011,1.468 0,0 22.847,-29.577 -0.289,-74.413 0,0 -5.856,-14.64 -26.955,-23.721 l 16.992,-18.748 c 0,0 14.359,6.161 25.478,22.871 0,0 0.593,-17.593 -12.884,-36.34 l 26.345,-29.89 26.08,29.609 c 0,0 -11.993,16.991 -12.876,36.902 0,0 8.191,-13.477 25.776,-23.151 l 16.686,18.748 c 0,0 -16.045,5.287 -26.794,23.529 -9.242,16.902 -16.357,53.05 0.416,75.223 0,0 18.772,26.618 51.792,-1.571 0,0 60.712,-54.399 -6.226,-133.048 0,0 -3.658,-3.233 0.449,-1.476 29.586,21.54 65.012,49.946 68.67,120.837 -1.444,85.966 -59.012,147.334 -143.074,147.334 C 68.934,295.968 4.95,227.283 7.42,145.986"
             inkscape:connector-curvature="0" /></g></g></clipPath></defs><sodipodi:namedview
     inkscape:current-layer="layer2"
     inkscape:window-maximized="1"
     inkscape:window-y="27"
     inkscape:window-x="0"
     inkscape:cy="143.02324"
     inkscape:cx="-76.981126"
     inkscape:zoom="1.5733333"
     units="mm"
     showgrid="false"
     id="namedview7"
     inkscape:window-height="1025"
     inkscape:window-width="1920"
     inkscape:pageshadow="2"
     inkscape:pageopacity="0"
     guidetolerance="10"
     gridtolerance="10"
     objecttolerance="10"
     borderopacity="1"
     bordercolor="#666666"
     pagecolor="#ffffff" /><g
     inkscape:groupmode="layer"
     id="layer3"
     inkscape:label="Flag"
     style="display:inline"
     transform="translate(0,2.3622239)"><g
       id="g856"
       clip-path="url(#clipPath890)"><g
         id="g848"><path
           style="fill:#5bcefa;stroke-width:0.84852821"
           d="M 0,0 H 300 V 61.200001 H 0 Z"
           id="path11"
           inkscape:connector-curvature="0" /><path
           style="fill:#f5a9b8;stroke-width:0.84852821"
           d="M 0,60.000001 H 300 V 121.2 H 0 Z"
           id="path13"
           inkscape:connector-curvature="0" /><path
           style="fill:#ffffff;stroke-width:0.84852821"
           d="m 0,120 h 300 v 61.2 H 0 Z"
           id="path15"
           inkscape:connector-curvature="0" /><path
           style="fill:#f5a9b8;stroke-width:0.84852821"
           d="m 0,180 h 300 v 61.20001 H 0 Z"
           id="path17"
           inkscape:connector-curvature="0" /><path
           style="fill:#5bcefa;stroke-width:0.84852821"
           d="M 0,240.00001 H 300 V 300 H 0 Z"
           id="path19"
           inkscape:connector-curvature="0" /></g></g></g><g
     inkscape:groupmode="layer"
     id="layer2"
     inkscape:label="Outline"
     style="display:inline"
     transform="translate(0,2.3622239)"><g
       id="g4"
       style="fill:none;stroke:#ff0000;stroke-width:7.559;stroke-miterlimit:4;stroke-dasharray:none;stroke-opacity:1;stroke-linejoin:round"><path
         d="M 7.42,145.986 C 9.185,99.193 32.899,56.035 76.25,27.516 c 0.128,0.048 1.251,-0.361 0.738,0.61 -3.434,3.184 -65.172,76.114 -8.344,133.68 0,0 29.858,28.704 53.011,1.468 0,0 22.847,-29.577 -0.289,-74.413 0,0 -5.856,-14.64 -26.955,-23.721 l 16.992,-18.748 c 0,0 14.359,6.161 25.478,22.871 0,0 0.593,-17.593 -12.884,-36.34 l 26.345,-29.89 26.08,29.609 c 0,0 -11.993,16.991 -12.876,36.902 0,0 8.191,-13.477 25.776,-23.151 l 16.686,18.748 c 0,0 -16.045,5.287 -26.794,23.529 -9.242,16.902 -16.357,53.05 0.416,75.223 0,0 18.772,26.618 51.792,-1.571 0,0 60.712,-54.399 -6.226,-133.048 0,0 -3.658,-3.233 0.449,-1.476 29.586,21.54 65.012,49.946 68.67,120.837 -1.444,85.966 -59.012,147.334 -143.074,147.334 C 68.934,295.968 4.95,227.283 7.42,145.986"
         id="path2"
         style="fill:none;stroke:#ff0000;stroke-width:7.559;stroke-miterlimit:4;stroke-dasharray:none;stroke-opacity:1;stroke-linejoin:round"
         inkscape:connector-curvature="0" /></g></g></svg>