<?xml version="1.0" encoding="UTF-8" standalone="no"?>
<!-- Created with Inkscape (http://www.inkscape.org/) -->

<svg
   xmlns:dc="http://purl.org/dc/elements/1.1/"
   xmlns:cc="http://creativecommons.org/ns#"
   xmlns:rdf="http://www.w3.org/1999/02/22-rdf-syntax-ns#"
   xmlns:svg="http://www.w3.org/2000/svg"
   xmlns="http://www.w3.org/2000/svg"
   xmlns:sodipodi="http://sodipodi.sourceforge.net/DTD/sodipodi-0.dtd"
   xmlns:inkscape="http://www.inkscape.org/namespaces/inkscape"
   width="40mm"
   height="40mm"
   viewBox="0 0 40 39.999999"
   version="1.1"
   id="svg857"
   inkscape:version="0.92.2 (unknown)"
   sodipodi:docname="drawing (copy).svg">
  <sodipodi:namedview
     units="mm"
     id="base"
     pagecolor="#ffffff"
     bordercolor="#666666"
     borderopacity="1.0"
     inkscape:pageopacity="0.0"
     inkscape:pageshadow="2"
     inkscape:zoom="2.8"
     inkscape:cx="-19.80188"
     inkscape:cy="101.57051"
     inkscape:document-units="mm"
     inkscape:current-layer="embroidery"
     showgrid="false"
     inkscape:window-width="1920"
     inkscape:window-height="1025"
     inkscape:window-x="0"
     inkscape:window-y="27"
     inkscape:window-maximized="1"
     fit-margin-top="0"
     fit-margin-left="0"
     fit-margin-right="0"
     fit-margin-bottom="0"
     inkscape:pagecheckerboard="true" />
  <defs
     id="defs851" />
  <metadata
     id="metadata854">
    <rdf:RDF>
      <cc:Work
         rdf:about="">
        <dc:format>image/svg+xml</dc:format>
        <dc:type
           rdf:resource="http://purl.org/dc/dcmitype/StillImage" />
        <dc:title />
      </cc:Work>
    </rdf:RDF>
  </metadata>
  <g
     inkscape:groupmode="layer"
     inkscape:label="Embroidery"
     id="embroidery"
     transform="translate(0,-12.916665)">
    <polyline
       id="polyline991"
       style="fill:none;stroke:#5bcefa;stroke-width:0.40000001"
       points="26.5301525614,1.5000000596 26.2180953182,1.5000000596 25.5570424415,2.25000008941 26.25,2.25000008941 27.1907559863,2.25000008941 27.8513594113,3.00000011921 24.8959895648,3.00000011921 24.2349366881,3.75000014901 28.5119628363,3.75000014901 29.1725662613,4.50000017881 23.5738838114,4.50000017881 22.9128309347,5.25000020862 26.25,5.25000020862 29.8331696862,5.25000020862 30.4937731112,6.00000023842 30.0,6.00000023842 22.251778058,6.00000023842 22.0395940244,6.75000026822 30.6485172193,6.75000026822 30.212022163,7.50000029802 22.5099483425,7.50000029802 22.9083901113,8.25000032783 26.25,8.25000032783 29.8416384903,8.25000032783 29.512600515,9.00000035763 23.2597210786,9.00000035763 23.4902376405,9.75000038743 29.2496052146,9.75000038743 29.0339017255,10.5000004172 23.7084195605,10.5000004172 23.8485057843,4.18842678565 26.2180953182,1.5000000596 38.9641031094,5.5272149375 39.8471296848,6.00000023842 39.3517468694,6.00000023842 39.920616223,6.75000026822 40.8134874491,6.75000026822 41.7798452134,7.50000029802 40.4894855766,7.50000029802 41.0583549303,8.25000032783 41.25,8.25000032783 42.7120483485,8.25000032783 43.5308127046,9.00000035763 41.5523037308,9.00000035763 41.9863350764,9.75000038743 44.3149062824,9.75000038743 45.007511369,10.5000004172 42.4203664221,10.5000004172 39.3517468694,6.00000023842 13.785626,5.629219 13.4911751326,6.00000023842 12.9919289388,6.00000023842 11.9397730963,6.75000026822 12.8955728301,6.75000026822 12.3269520426,7.50000029802 11.0300475266,7.50000029802 10.1430450499,8.25000032783 11.25,8.25000032783 11.8385822685,8.25000032783 11.3502124944,9.00000035763 9.37414937799,9.00000035763 8.6197582371,9.75000038743 10.9455028033,9.75000038743 10.544112107,10.5000004172 7.96298333995,10.5000004172 12.9919289388,6.00000023842 18.0453626426,10.580302567 20.1109490747,9.00000035763 19.4777079178,9.00000035763 18.7979271817,9.75000038743 21.2646976869,9.75000038743 22.1557258306,10.5000004172 18.1181464456,10.5000004172 19.4777079178,9.00000035763 20.1109490747,9.00000035763 29.877436,11.208931 33.2734945186,9.00000035763 32.7081321979,9.00000035763 31.5803256849,9.75000038743 33.75,9.75000038743 33.9410411321,9.75000038743 34.6085877455,10.5000004172 30.6573109563,10.5000004172 32.7081321979,9.00000035763 33.2734945186,9.00000035763"
       transform="matrix(0.76687306,0,0,0.76687306,-0.29008541,12.530005)" />
    <polyline
       id="polyline999"
       style="fill:none;stroke:#5bcefa;stroke-width:0.40000001"
       points="7.1333998,42.09875 7.75228005455,42.09875 7.42148206829,42.4295479863 7.91520827472,42.9964819938 8.81294026848,42.09875 9.87360048241,42.09875 8.40893448115,43.5634160013 8.90266068758,44.1303500087 10.6066027715,42.4264079249 10.9342606963,42.09875 11.9949209103,42.09875 9.45165251113,44.6420183991 10.0036547152,45.150676409 13.0555811242,42.09875 14.1162413381,42.09875 10.5556569192,45.6593344189 11.1259537762,46.1496977758 12.7279231993,44.5477283527 15.176901552,42.09875 16.237561766,42.09875 15.9099037357,42.4264080302 11.7372578597,46.5990539062 12.3485619433,47.0484100366 17.2982219799,42.09875 18.3588821938,42.09875 12.9598660268,47.4977661671 13.6146098237,47.9036825841 14.8492436272,46.6690487806 19.4195424077,42.09875 20.4802026217,42.09875 18.0312241636,44.5477284581 14.2880390445,48.2909135772 14.9614682653,48.6781445703 21.2132047,42.4264081356 21.5408628356,42.09875 22.6015230495,42.09875 15.6453391788,49.0549338707 16.3857884171,49.3751448463 16.970564055,48.7903692084 23.6621832635,42.09875 24.7228434774,42.09875 20.1525445914,46.6690488859 17.1262376554,49.695355822 17.8666868937,50.0155667976 23.3345251279,44.5477285635 25.7835036913,42.09875 26.8441639052,42.09875 26.5165056643,42.426408241 18.6602970122,50.2826168931 19.4752553432,50.5283187759 27.9048241192,42.09875 28.9654843331,42.09875 22.2738650193,48.7903693138 20.2902136743,50.7740206588 21.1400135896,50.9848809574 25.4558455557,46.6690489913 30.026144547,42.09875 31.0868047609,42.09875 28.6378260921,44.5477286688 22.0404630743,51.1450916867 22.9409125589,51.305302416 31.8198066285,42.4264083463 32.1474649749,42.09875 33.2081251888,42.09875 24.3951854471,50.9116897416 23.8690969109,51.4377782779 24.871041606,51.4964937967 27.5771659836,48.7903694192 34.2687854027,42.09875 35.3294456166,42.09875 30.75914652,46.6690490967 25.8729863012,51.5552093155 26.9160716029,51.5727842277 33.9411270564,44.5477287742 36.3901058306,42.09875 37.4507660445,42.09875 37.1231075928,42.4264084517 28.036953362,51.5125626825 29.1578351212,51.4523411373 29.6984864114,50.911689847 38.5114262584,42.09875 39.5720864724,42.09875 32.8804669478,48.7903695245 30.3693503338,51.3014861386 31.6418574897,51.0896391966 36.0624474842,46.669049202 40.6327466863,42.09875 41.6934069002,42.09875 39.2444280207,44.5477288796 32.9795525811,50.8126043191 34.4691117919,50.3837053223 42.4264085571,42.4264085571 42.7540671141,42.09875 43.8147273281,42.09875 36.113714185,49.799763143 37.9772252826,48.9969122594 38.1837679121,48.7903696299 44.875387542,42.09875 45.9360477559,42.09875 41.3657484485,46.6690493074 40.5989147502,47.4358830058 41.3657484485,46.6690493074 45.9360477559,42.09875 38.4360477559,42.09875 30.9360477559,42.09875 23.4360477559,42.09875 15.9360477559,42.09875 8.43604775591,42.09875 7.75228005455,42.09875"
       transform="matrix(0.76687306,0,0,0.76687306,-0.29008541,12.530005)" />
    <polyline
       id="polyline993"
       style="fill:none;stroke:#f5a9b8;stroke-width:0.40000001"
       points="10.164731,11.208931 7.88295285068,11.208931 5.97303597631,13.1188478744 4.48688920976,15.6656548548 7.42462160285,12.7279224618 8.94361306461,11.208931 10.0042732785,11.208931 3.64415884874,17.5690454298 3.02029702917,19.2535674633 3.18198095788,19.0918835346 9.54013302605,12.7337314664 9.00070137091,14.3338233355 6.36396149429,16.9705632121 2.61168543528,20.7228392711 2.88964392031,21.505541 8.60601727659,15.7891676437 8.43445267045,17.0213924638 3.95030413424,21.505541 5.01096434817,21.505541 5.30330138573,21.2132039624 8.30462315777,18.2118821904 8.2686567607,19.3085088014 6.07162456209,21.505541 7.13228477602,21.505541 8.32252522815,20.3153005479 8.45003471907,21.2484512709 8.19294498995,21.505541 2.84979011536,19.8666704815 5.97303597631,13.1188478744 7.88295285068,11.208931 16.775742,11.981181 18.4895549899,11.208931 17.4023792576,12.2961067323 18.0991799005,12.6599663034 19.5502152039,11.208931 20.6108754178,11.208931 18.7368979549,13.0829084629 19.3258524344,13.5546141973 21.6715356317,11.208931 22.7321958457,11.208931 19.8743563863,14.0667704593 20.4228603383,14.5789267213 23.2939039771,11.7078830825 23.7604485725,12.301998701 23.3345244957,12.7279227779 20.8703362771,15.1921109964 21.2896110695,15.833496418 25.9141764874,11.208931 24.8535162735,11.208931 24.000795872,12.0616514016 24.8535162735,11.208931 26.9748367014,11.208931 21.6135992271,16.5701684742 21.9216058105,17.3228221048 22.2738643871,16.9705635282 28.0354969153,11.208931 28.7925148529,11.5125732763 25.4558449235,14.8492432057 22.2296123938,18.0754757354 22.5376189771,18.828129366 28.6378254599,12.7279228832 30.1568173431,11.208931 31.2174775571,11.208931 22.7348435925,19.6915649646 22.9148173972,20.5722513738 24.3951848149,19.091883956 32.278137771,11.208931 33.3387979849,11.208931 27.5771653514,16.9705636336 23.0947912019,21.452937783 24.1028481988,21.505541 30.7591458878,14.8492433111 34.3994581988,11.208931 35.3434428932,11.3256065196 33.9411264242,12.7279229886 25.1635084128,21.505541 26.2241686267,21.505541 26.5165052428,21.2132043839 31.0695737091,16.6601359176 35.6217093257,12.108000301 30.7270979714,17.5072883145 30.349805155,18.4405646856 29.6984857792,19.0918840614 27.2848288406,21.505541 28.3454890546,21.505541 29.9982350373,19.8527950172 29.8019532432,21.1097370253 29.4061492685,21.505541 22.8654007801,20.3304353876 19.5547108956,13.7683069038 17.4023792576,12.2961067323 18.4895549899,11.208931 42.830646,11.208931 43.1455985861,12.0087325381 43.9454001242,11.208931 45.0060603381,11.208931 43.4452679661,12.769723372 43.7449373462,13.5307142058 44.5477283527,12.7279231993 45.8349284129,11.4407231391 46.2878059078,12.0485058582 44.0179276027,14.3183841633 44.1976553804,15.1993165995 46.7406834027,12.6562885772 47.1920925413,13.2655396525 44.3773831582,16.0802490356 44.5326249851,16.9856674226 46.6690487806,14.8492436272 47.5769532713,13.9413391364 47.9618140014,14.6171386203 44.5582713548,18.0206812668 44.5839177245,19.0556951111 48.3466747314,15.2929381042 48.6912940348,16.0089790147 45.608388672,19.0918843775 44.4503776948,20.2498953547 44.2707779763,21.4901552872 48.7903692084,16.970564055 48.999273159,16.7616601044 49.3072522832,17.5143411941 45.3160524774,21.505541 46.3767126913,21.505541 49.6152314075,18.2670222838 49.8476463092,19.095267596 47.7297090999,21.2132048054 47.4373729052,21.505541 48.4980331192,21.505541 50.0706754509,19.9328986683 50.2937045925,20.7705297406 49.5586933331,21.505541 50.2937045925,20.7705297406 47.5205393865,13.8422786939 42.8847399103,11.208931"
       transform="matrix(0.76687306,0,0,0.76687306,-0.29008541,12.530005)" />
    <polyline
       id="polyline997"
       style="fill:none;stroke:#f5a9b8;stroke-width:0.40000001"
       points="2.88964392031,31.802145 3.19964205958,31.802145 2.54440273324,32.4573843263 3.19964205958,31.802145 4.26030227351,31.802145 2.76951568922,33.2929315843 2.99462864521,34.1284788422 5.30330159647,31.819805891 6.38162270136,31.802145 3.25290187078,34.9308658306 3.55443460753,35.6899933078 7.44228291529,31.802145 8.50294312921,31.802145 4.24264148791,36.0624466413 3.85596734428,36.4491207849 4.15750008103,37.2082482621 7.42462202432,33.9411263188 9.56360334314,31.802145 10.6242635571,31.802145 4.52243282399,37.9039757331 4.89253873009,38.5945300409 11.684923771,31.802145 12.7455839849,31.802145 6.36396191576,38.1837670692 5.2626446362,39.2850843487 5.6515130828,39.956876116 9.54594245218,36.0624467467 13.8062441988,31.802145 14.8669044128,31.802145 12.7279229886,33.9411264242 6.08525538961,40.5837940232 6.51899769642,41.2107119303 15.909903525,31.8198061017 16.9882248406,31.802145 8.48528234362,40.305087497 6.95274000324,41.8376298374 7.75228005455,42.09875 11.66726288,38.1837671745 18.0488850546,31.802145 19.1095452685,31.802145 14.8492434164,36.062446852 8.81294026848,42.09875 9.87360048241,42.09875 18.0312239529,33.9411265296 20.1702054824,31.802145 21.2308656963,31.802145 10.9342606963,42.09875 11.9949209103,42.09875 13.7885833079,40.3050876024 22.2915259103,31.802145 23.3521861242,31.802145 16.9705638443,38.1837672799 13.0555811242,42.09875 14.1162413381,42.09875 20.1525443807,36.0624469574 24.4128463381,31.802145 25.473506552,31.802145 23.3345249171,33.9411266349 15.176901552,42.09875 16.237561766,42.09875 26.5165054535,31.8198063124 27.5948269799,31.802145 19.0918842721,40.3050877077 17.2982219799,42.09875 18.3588821938,42.09875 22.2738648086,38.1837673853 28.6554871938,31.802145 29.7161474077,31.802145 25.455845345,36.0624470628 19.4195424077,42.09875 20.4802026217,42.09875 28.6378258814,33.9411267403 30.7768076217,31.802145 31.8374678356,31.802145 21.5408628356,42.09875 22.6015230495,42.09875 24.3951852364,40.3050878131 32.8981280495,31.802145 33.9587882635,31.802145 27.5771657728,38.1837674906 23.6621832635,42.09875 24.7228434774,42.09875 30.7591463092,36.0624471681 35.0194484774,31.802145 36.0801086913,31.802145 33.9411268457,33.9411268457 25.7835036913,42.09875 26.8441639052,42.09875 37.1231073821,31.8198065232 38.2014291192,31.802145 29.6984862007,40.3050879185 27.9048241192,42.09875 28.9654843331,42.09875 32.8804667371,38.183767596 39.2620893331,31.802145 40.322749547,31.802145 36.0624472735,36.0624472735 30.026144547,42.09875 31.0868047609,42.09875 39.2444278099,33.941126951 41.3834097609,31.802145 42.4440699749,31.802145 32.1474649749,42.09875 33.2081251888,42.09875 35.0017871649,40.3050880238 43.5047301888,31.802145 44.5653904027,31.802145 38.1837677014,38.1837677014 34.2687854027,42.09875 35.3294456166,42.09875 41.3657482378,36.0624473789 45.6260506166,31.802145 46.6867108306,31.802145 44.5477287742,33.9411270564 36.3901058306,42.09875 37.4507660445,42.09875 47.7297093106,31.8198067339 48.8080312584,31.802145 40.3050881292,40.3050881292 38.5114262584,42.09875 39.5720864724,42.09875 43.4870686656,38.1837678067 49.8686914724,31.802145 50.3740280108,32.3574686755 46.669049202,36.0624474842 40.6327466863,42.09875 41.6934069002,42.09875 49.8510297385,33.9411271618 50.0215567128,33.7706001875 49.5709734955,35.2818436187 42.7540671141,42.09875 43.8147273281,42.09875 45.6083890935,40.3050882346 48.9607257432,36.9527515849 48.0152021814,38.9589353606 44.875387542,42.09875 45.9360477559,42.09875 46.4490532535,41.5857445024 45.9360477559,42.09875 38.4360477559,42.09875 30.9360477559,42.09875 23.4360477559,42.09875 15.9360477559,42.09875 8.43604775591,42.09875 3.98672673062,36.778315698 2.54440273324,32.4573843263 3.19964205958,31.802145"
       transform="matrix(0.76687306,0,0,0.76687306,-0.29008541,12.530005)" />
    <polyline
       id="polyline995"
       style="fill:none;stroke:#ffffff;stroke-width:0.40000001"
       points="44.26855,21.505541 40.8339803055,28.0896933117 34.1667813599,30.7000194118 29.8550745292,25.1197537771 25.8679568638,21.505541 22.6343115359,26.1840369474 17.4824016384,30.7781307873 11.1934688312,27.2209000246 7.37342729617,21.505541 2.88964392031,21.505541 2.29201856621,22.1031663541 2.88964392031,21.505541 3.95030413424,21.505541 2.12132084932,23.3345242849 1.9526134841,24.5638918641 5.01096434817,21.505541 6.07162456209,21.505541 1.8584616163,25.7187039458 1.87361699915,26.7642087769 7.13228477602,21.505541 8.19294498995,21.505541 4.24264127718,25.4558447128 1.90341356257,27.7950724274 1.933210126,28.8259360779 7.42462181359,23.3345243903 8.64850558726,22.1106406166 8.87396135982,22.945845058 2.06489842295,29.7549079949 2.20163025581,30.6788363759 3.18198116862,29.6984854631 9.15671372043,23.7237529113 9.47998162058,24.4611452251 6.36396170503,27.5771651406 2.33836208867,31.602764757 3.19964205958,31.802145 9.54594224144,25.4558448181 9.81787535874,25.1839117008 10.2289891037,25.8334581698 4.26030227351,31.802145 5.32096248743,31.802145 10.6401028487,26.4830046388 11.0868451089,27.0969225925 8.48528213288,29.6984855685 6.38162270136,31.802145 7.44228291529,31.802145 11.577265638,27.6671622773 12.0676861672,28.237401962 8.50294312921,31.802145 9.56360334314,31.802145 12.5982747813,28.7674735619 13.1850988043,29.2413097528 10.6242635571,31.802145 11.684923771,31.802145 13.7885830971,29.6984856738 14.5137589989,30.033969986 12.7455839849,31.802145 13.8062441988,31.802145 15.2395363726,30.3688528263 16.0610445711,30.6080048417 14.8669044128,31.802145 15.9275646267,31.802145 16.936620675,30.7930889517 18.0271694504,30.7632003902 16.9882248406,31.802145 18.0488850546,31.802145 19.4882895354,30.3627405192 21.9936847668,27.8573452878 22.2738645978,27.5771654567 28.3454890546,21.505541 27.2848288406,21.505541 22.6439816979,26.1463881428 23.0105740347,24.719135592 26.2241686267,21.505541 25.1635084128,21.505541 23.3345247064,23.3345247064 23.1378501027,23.5311993101 23.1450773901,22.4633118088 24.1028481988,21.505541 29.4061492685,21.505541 25.4558451342,25.4558451342 19.1095452685,31.802145 20.1702054824,31.802145 28.6378256707,23.3345248118 29.7151459454,22.257204537 29.6753005646,23.3577101317 21.2308656963,31.802145 22.2915259103,31.802145 24.3951850257,29.6984858846 29.7674104289,24.3262604814 29.8729328064,25.2813983178 27.5771655621,27.5771655621 23.3521861242,31.802145 24.4128463381,31.802145 30.1002306147,26.1147607234 30.3456124501,26.9300391019 25.473506552,31.802145 26.534166766,31.802145 30.6752959312,27.6610158348 31.0612773227,28.3356946572 29.6984859899,29.6984859899 27.5948269799,31.802145 28.6554871938,31.802145 31.4624459985,28.9951861953 31.9728367519,29.5454556558 29.7161474077,31.802145 30.7768076217,31.802145 32.5719490656,30.0070035561 33.2577681508,30.3818446848 31.8374678356,31.802145 32.8981280495,31.802145 34.0288251105,30.671447939 34.9075058675,30.8534273959 33.9587882635,31.802145 35.0194484774,31.802145 36.0407204725,30.7808730049 37.5370824551,30.3451712362 36.0801086913,31.802145 37.1407689052,31.802145 40.2752982135,28.6676156918 47.4373729052,21.505541 46.3767126913,21.505541 44.5477285635,23.3345251279 43.006661445,24.8755922463 43.8380760202,22.9835174572 45.3160524774,21.505541 48.4980331192,21.505541 40.3050879185,29.6984862007 38.2014291192,31.802145 39.2620893331,31.802145 43.4870684549,27.5771658782 49.5586933331,21.505541 50.5075750931,21.6173194539 46.6690489913,25.4558455557 40.322749547,31.802145 41.3834097609,31.802145 49.8510295277,23.3345252332 50.6558471077,22.5297076532 50.8041191224,23.4420958525 42.4440699749,31.802145 43.5047301888,31.802145 45.6083888827,29.698486306 50.9141122804,24.3927629084 50.9992179852,25.3683174175 48.7903694192,27.5771659836 44.5653904027,31.802145 45.6260506166,31.802145 51.0789623756,26.349233241 51.011399709,27.4774561216 46.6867108306,31.802145 47.7473710445,31.802145 50.9438370424,28.6056790021 50.811248842,29.7989274164 48.8080312584,31.802145 49.8686914724,31.802145 50.6253720691,31.0454644032 49.8686914724,31.802145 42.3686914724,31.802145 34.8686914724,31.802145 27.3686914724,31.802145 19.8686914724,31.802145 12.3686914724,31.802145 4.86869147235,31.802145 1.87568354565,26.8357045277 2.29201856621,22.1031663541 2.88964392031,21.505541"
       transform="matrix(0.76687306,0,0,0.76687306,-0.29008541,12.530005)" />
    <polyline
       id="polyline1001"
       style="fill:none;stroke:#ff0000;stroke-width:0.40000001"
       points="2.27439613994,25.8966324823 1.44422070083,25.5647971828 2.32274742148,25.3989758125 1.49257198236,25.0671405129 2.37109870301,24.9013191427 1.5409232639,24.5694838431 2.41944998455,24.4036624728 1.58927454543,24.0718271733 2.46780126608,23.906005803 1.63762582697,23.5741705035 2.51615254762,23.4083491332 1.6859771085,23.0765138336 2.55737968452,22.9615937259 1.77281680677,22.5329131729 2.66486513893,22.473283492 1.88030226118,22.0446029389 2.77235059334,21.9849732581 1.98778771559,21.556292705 2.87983604774,21.4966630242 2.09527317,21.0679824711 2.98732150215,21.0083527903 2.2027586244,20.5796722372 3.09480695656,20.5200425564 2.31024407881,20.0913620033 3.19278674805,20.0830325148 2.46575655782,19.5627123939 3.35847532149,19.6112833186 2.63144513126,19.0909631977 3.52416389493,19.1395341225 2.79713370469,18.6192140016 3.68985246836,18.6677849263 2.96282227813,18.1474648054 3.8555410418,18.1960357301 3.12851085157,17.6757156092 4.02122961524,17.724286534 3.29419942501,17.2039664131 4.17541684934,17.3042929915 3.51687816942,16.6996172662 4.39711122347,16.8561282763 3.73857254355,16.251452551 4.6188055976,16.4079635612 3.96026691768,15.8032878358 4.84049997173,15.959798846 4.18196129181,15.3551231207 5.06219434586,15.5116341308 4.40365566594,14.9069584055 5.28388871999,15.0634694156 4.62535004007,14.4587936903 5.4901581558,14.666405236 4.90959691724,13.9865121752 5.76443500445,14.2483475632 5.18387376588,13.5684545025 6.03871185309,13.8302898905 5.45815061453,13.1503968297 6.31298870174,13.4122322177 5.73242746317,12.732339157 6.58726555039,12.9941745449 6.00670431182,12.3142814842 6.86154239903,12.5761168722 6.28098116046,11.8962238115 7.11287988328,12.2051502439 6.61787331055,11.4606541602 7.43522482496,11.8229281278 6.94021825223,11.0784320441 7.75756976664,11.4407060117 7.26256319392,10.696209928 8.07991470832,11.0584838956 7.5849081356,10.3139878119 8.40225965,10.6762617796 7.90725307728,9.93176569582 8.72460459168,10.2940396635 8.22959801896,9.54954357973 9.01232669601,9.94861561777 8.60824239812,9.15110586489 9.37735624887,9.60692360296 8.97327195098,8.80941385007 9.74238580173,9.26523158814 9.33830150384,8.46772183526 10.1074153546,8.92353957332 9.7033310567,8.12602982044 10.4724449074,8.5818475585 10.0683606096,7.78433780562 10.8374744603,8.24015554368 10.4333901624,7.4426457908 11.2025040132,7.89846352887 10.8426190363,7.07711400986 11.5544949024,7.61798245688 11.2443653329,6.77945662193 11.956241199,7.32032506894 11.6461116295,6.481799234 12.3579874957,7.02266768101 12.0478579262,6.18414184607 12.7597337923,6.72501029308 12.4496042228,5.88648445814 13.1614800889,6.42735290515 12.8513505194,5.5888270702 13.5632263856,6.12969551722 13.2530968161,5.29116968227 13.7508821665,5.94839970723 14.0509724151,5.9794340185 13.2361558986,5.61149384647 13.7259814446,6.35940885519 12.9111649281,5.99146868316 13.4315914181,6.71728514513 12.5886144581,6.4194667934 13.1398484415,7.12334676985 12.2968714815,6.82552841811 12.8481054649,7.52940839457 12.0051285049,7.23159004283 12.5563624883,7.93547001928 11.7133855283,7.63765166755 12.2903377301,8.30965120051 11.4229191626,8.09310800743 12.0384131009,8.74154700814 11.1709945334,8.52500381506 11.7864884717,9.17344281577 10.9190699041,8.95689962269 11.5345638425,9.60533862341 10.6671452749,9.38879543033 11.2826392132,10.037234431 10.4152206457,9.82069123796 11.030714584,10.4691302387 10.1632960165,10.2525870456 10.8238691634,10.8634972187 9.93618275338,10.7571075428 10.6279218221,11.3235022696 9.74023541201,11.2171125937 10.4319744807,11.7835073205 9.54428807064,11.6771176446 10.2360271393,12.2435123714 9.34834072928,12.1371226955 10.040079798,12.7035174223 9.15239338791,12.5971277464 9.8441324566,13.1635224732 8.95644604655,13.0571327973 9.64818511523,13.6235275242 8.7536608453,13.569797796 9.50871036968,14.0485525782 8.61467258708,14.0500917388 9.36972211147,14.528846521 8.47568432886,14.5303856817 9.23073385325,15.0091404639 8.33669607065,15.0106796245 9.10743588145,15.4488696766 8.21805676028,15.5400327425 9.01729969227,15.9406780487 8.12792057111,16.0318411145 8.9271635031,16.4324864208 8.03778438193,16.5236494866 8.83702731392,16.9242947928 7.94764819276,17.0154578587 8.77956277926,17.3695187332 7.90692713534,17.5639742775 8.74750788639,17.8684901665 7.87487224246,18.0629457108 8.71545299351,18.3674615999 7.84281734959,18.5619171441 8.68339810064,18.8664330332 7.82528084891,19.1184839599 8.69908500417,19.3076194245 7.86037509489,19.6172508406 8.73417925015,19.8063863053 7.89546934088,20.1160177214 8.76927349613,20.3051531861 7.93056358686,20.6147846022 8.80436774211,20.8039200668 8.00303127589,21.1730988367 8.89528922703,21.2295051695 8.11228028719,21.6610175399 9.00453823832,21.7174238727 8.22152929848,22.1489362432 9.11378724961,22.205342576 8.33077830977,22.6368549464 9.22303626091,22.6932612792 8.49187340003,23.1809199056 9.3816426861,23.0936470959 8.67788167948,23.6450329602 9.56765096555,23.5577601505 8.86388995893,24.1091460148 9.753659245,24.0218732051 9.04989823838,24.5732590693 9.93966752445,24.4859862596 9.284342738,25.091878518 10.1478710371,24.860308221 9.54372778252,25.5193354236 10.4072560816,25.2877651266 9.80311282705,25.9467923292 10.6666411261,25.7152220322 10.0624978716,26.3742492347 10.9260261706,26.1426789377 10.3218829161,26.8017061403 11.160953641,26.5037080748 10.6687981179,27.250091935 11.4847580869,26.8846945421 10.9926025638,27.6310784023 11.8085625328,27.2656810094 11.3164070097,28.0120648696 12.1323669786,27.6466674767 11.6402114555,28.3930513369 12.4561714245,28.027653944 11.9640159014,28.7740378042 12.7425341669,28.3322177527 12.3977598419,29.1571035572 13.1315385107,28.6463445231 12.7867641857,29.4712303277 13.4840767558,28.928146843 13.2345200539,29.7866498298 13.9060225056,29.1964037938 13.6564658038,30.0549067805 14.3279682555,29.4646607445 14.1382696672,30.3334014264 14.7249210887,29.6587563083 14.592263985,30.5428988412 15.1789154065,29.8682537231 15.0462583028,30.7523962561 15.5583261905,30.0426012693 15.5962575478,30.9358353584 16.0438798089,30.1619230655 16.0818111663,31.0551571546 16.5294334274,30.2812448617 16.5673647847,31.1744789508 16.9033408951,30.3647804478 17.1767426868,31.2159898145 17.4031535601,30.3510944207 17.6765553518,31.2023037875 17.9029662252,30.3374083937 18.1763680169,31.1886177605 18.2960879253,30.3247126063 18.7691131748,31.0833647263 18.7774202635,30.1893642128 19.250445513,30.9480163328 19.1713477013,30.0398624202 19.7717930817,30.7022605413 19.6209231765,29.8210430894 20.2745615309,30.4254547351 19.9716885711,29.5842806175 20.6788646517,30.1312796274 20.375991692,29.2901055099 21.1182569871,29.7705866015 20.6826990909,28.9898207949 21.4693738643,29.4146133638 21.0338159682,28.6338475572 21.86559224,28.9657021084 21.259539498,28.3084304753 22.1237360157,28.5374944503 21.5176832737,27.8802228171 22.4046909606,28.058276076 21.7185029349,27.4851688267 22.6051106919,27.6002019131 21.9189226663,27.0270946638 22.8055304233,27.1421277502 22.0912712135,26.6178310294 22.985310287,26.6175844294 22.2309537135,26.1377385314 23.124992787,26.1374919314 22.3706362136,25.6576460334 23.2646752871,25.6573994334 22.4931970383,25.2398559968 23.3771046495,25.1056425081 22.5593616538,24.74425308 23.4432692651,24.6100395913 22.6255262693,24.2486501633 23.5094338806,24.1144366745 22.6916908848,23.7530472465 23.5755984961,23.6188337578 22.7273248298,23.328218344 23.5762455936,23.0477910583 22.7095085618,22.8285358568 23.5584293256,22.5481085711 22.6916922937,22.3288533695 23.5406130575,22.0484260839 22.6738760257,21.8291708823 23.5227967895,21.5487435966 22.6560597577,21.3294883951 23.4548583507,20.9781508156 22.56294908,20.9164760349 23.3484927591,20.4895954264 22.4565834884,20.4279206456 23.2421271675,20.0010400371 22.3502178968,19.9393652564 23.135761576,19.5124846479 22.2438523053,19.4508098671 23.0293959844,19.0239292586 22.1374867137,18.9622544778 22.868364914,18.4724317176 21.9796524293,18.5698793713 22.6770585246,18.010477312 21.7883460399,18.1079249658 22.4857521352,17.5485229065 21.5970396505,17.6459705602 22.2944457458,17.0865685009 21.405733261,17.1840161546 22.1031393564,16.6246140953 21.2144268716,16.7220617491 21.9118329669,16.1626596898 21.0231204822,16.2601073435 21.6911185049,15.6760840342 20.8131787104,15.8449853157 21.4002891003,15.1947836176 20.5570318923,15.4918075338 21.1089288688,14.7884472754 20.2656716608,15.0854711916 20.8175686373,14.3821109333 19.9988399428,14.7702754864 20.4019374527,13.972266512 19.6333880137,14.4290352559 20.0364855236,13.6310262815 19.2679360845,14.0877950254 19.6710335944,13.289786051 18.9024841553,13.7465547949 19.248017286,12.906933416 18.5652420778,13.4841023175 18.8313304007,12.6305784865 18.1485551925,13.207747388 18.4146435154,12.3542235569 17.7731155414,12.9627913704 17.9351901265,12.0835657142 17.3263618116,12.7382671795 17.4884363967,11.8590415232 16.8796080817,12.5137429885 17.0416826668,11.6345173323 16.5705163392,11.5684713411 17.3744209119,11.9596789123 16.9062942589,11.1979943565 17.7101988316,11.5892019277 17.2420721786,10.8275173719 18.0459767513,11.2187249431 17.5778500983,10.4570403873 18.381754671,10.8482479585 17.9136280179,10.0865634027 18.7175325906,10.4777709739 18.2494059376,9.71608641816 19.0533105103,10.1072939893 18.5851838573,9.34560943358 19.38908843,9.73681700475 18.920961777,8.97513244899 19.7248663497,9.36634002017 19.2567396967,8.60465546441 19.5349609642,9.17051509912 20.1923999923,8.56464394938 19.9630972947,9.4287771559 20.6205363228,8.82290600617 20.3912336251,9.68703921269 21.0486726532,9.08116806295 20.8193699556,9.94530126947 21.5242461133,9.39609148588 21.1543870289,10.2100387713 21.9034541263,9.72197688038 21.5335950419,10.5359241658 22.2826621393,10.0478622749 21.9128030548,10.8618095603 22.6618701522,10.3737476694 22.2920110678,11.1876949548 23.0629895465,10.7837944555 22.5561273581,11.5202702851 23.3791739673,11.1711281869 22.8723117789,11.9076040165 23.6953583881,11.5584619183 23.1884961997,12.294937748 24.0115428089,11.9457956497 23.5046806205,12.6822714794 24.3277272297,12.3331293812 24.4873719925,12.5309000737 23.6199581701,12.3143378739 24.4493218486,11.9827417823 23.5625766656,11.8687728997 24.3718431441,11.488781199 23.4850979611,11.3748123164 24.2943644396,10.9948206158 23.4076192566,10.8808517332 24.167749899,10.4419285612 23.2741859354,10.4710724921 24.0123604652,9.96668743153 23.1187965016,9.9958313625 23.8569710313,9.49144630189 22.9634070678,9.52059023286 23.7015815975,9.01620517225 22.8080176339,9.04534910322 23.5080086553,8.4907220245 22.6275793531,8.64612527281 23.286878403,8.04227869587 22.4064491009,8.19768194418 23.0657481508,7.59383536724 22.199297083,7.7950434525 22.7889715048,7.1230389867 21.9306811837,7.37332612288 22.5203556055,6.70132165708 21.6620652844,6.95160879326 22.2517397062,6.27960432746 21.6510106352,6.03245718424 22.460261427,6.41248229088 21.981620207,5.65736077201 22.7908709988,6.03738587865 22.3122297788,5.28226435978 23.1214805706,5.66228946642 22.6428393506,4.90716794755 23.4520901425,5.2871930542 22.9734489225,4.53207153532 23.7826997143,4.91209664197 23.3040584943,4.1569751231 24.1133092861,4.53700022974 23.6346680661,3.78187871087 24.443918858,4.16190381751 23.965277638,3.40678229864 24.7745284298,3.78680740528 24.2958872098,3.03168588641 25.1051380016,3.41171099306 24.6264967816,2.65658947418 25.4357475734,3.03661458083 24.9571063534,2.28149306195 25.7663571453,2.6615181686 25.2877159253,1.90639664973 26.0969667171,2.28642175637 25.6183254971,1.5313002375 26.4275762889,1.91132534414 25.9489350689,1.15620382527 26.1141227881,1.6772525234 26.923499103,1.29749482879 26.4446084032,2.05245815461 27.2539847181,1.67270046001 26.7750940182,2.42766378583 27.5844703331,2.04790609122 27.1055796333,2.80286941704 27.9149559482,2.42311172244 27.4360652483,3.17807504826 28.2454415632,2.79831735365 27.7665508634,3.55328067947 28.5759271783,3.17352298486 28.0970364784,3.92848631068 28.9064127933,3.54872861608 28.4275220935,4.3036919419 29.2368984084,3.92393424729 28.7580077085,4.67889757311 29.5673840234,4.29913987851 29.0884933236,5.05410320433 29.8978696385,4.67434550972 29.4189789386,5.42930883554 30.2283552535,5.04955114094 29.7494645537,5.80451446676 30.5588408686,5.42475677215 30.0799501687,6.17972009797 30.8893264836,5.79996240337 30.4104357838,6.55492572919 31.1893425979,6.67639618488 30.317639424,6.47780237247 30.9463858306,7.11339963642 30.0746826567,6.91480582401 30.7034290632,7.55040308797 29.8317258893,7.35180927555 30.4604722959,7.98740653951 29.588769122,7.7888127271 30.2175155286,8.42440999105 29.3414554117,8.29477637871 30.0582799602,8.82906889443 29.16666835,8.76323074204 29.8834928985,9.29752325777 28.9918812884,9.23168510538 29.7087058369,9.7659776211 28.8170942267,9.70013946871 29.5339187752,10.2344319844 28.6278355555,10.2229942593 29.4083930766,10.6589253112 28.5158305681,10.7102876928 29.2963880892,11.1462187446 28.4038255808,11.1975811262 29.1989696271,11.585566015 28.3183330456,11.739790323 29.1440613554,12.0825419593 28.263424774,12.2367662673 29.0891530838,12.5795179035 29.0038583279,12.9687572663 28.4861234812,12.2398837833 29.3142603435,12.5767743635 28.7965254969,11.8479008804 29.6246623592,12.1847914606 29.1069275125,11.4559179776 29.9350643748,11.7928085578 29.4668566955,11.0222198857 30.2354334125,11.4789427291 29.8322882443,10.6809578301 30.6008649614,11.1376806735 30.1977197931,10.3396957745 30.9662965102,10.7964186179 30.5631513419,9.99843371892 31.331728059,10.4551565624 30.998550939,9.63555941138 31.6850517975,10.2082918944 31.4134383295,9.35651020302 32.0999391879,9.92924268602 31.8283257199,9.07746099466 32.5148265784,9.65019347766 32.2432131104,8.7984117863 32.9297139688,9.3711442693 32.6581005009,8.51936257794 32.7761863317,9.08687830298 33.5835927965,8.7029502806 33.1086031463,9.46037404438 33.9160096111,9.07644602199 33.4410199608,9.83386978577 34.2484264256,9.44994176339 33.7734367754,10.2073655272 34.5808432402,9.82343750478 34.10585359,10.5808612686 34.9132600548,10.1969332462 34.4382704046,10.95435701 35.2456768693,10.5704289876 34.7706872191,11.3278527513 35.5780936839,10.943924729 35.1031040337,11.7013484927 35.9105104985,11.3174204704 35.4355208483,12.0748442341 36.2429273131,11.6909162118 35.537665604,11.6782818839 35.636062408,12.5668897809 35.0415210713,11.9209683884 35.2492660985,12.7905360565 34.6070953978,12.1685049345 34.814840425,13.0380726025 34.1726697242,12.4160414805 34.459580853,13.2679558204 33.718770537,12.7674500748 34.0749823595,13.5874616986 33.3341720435,13.0869559531 33.690383866,13.9069675769 32.94957355,13.4064618313 33.3057853725,14.2264734551 32.5649750564,13.7259677096 32.9955853295,14.5248328983 32.1849890824,14.1476861764 32.6663108953,14.9011018904 31.8557146482,14.5239551685 32.3754542986,15.240394612 31.5247171448,14.9655269696 32.0948211132,15.6542122322 31.2440839594,15.3793445897 31.8141879279,16.0680298523 30.9317549137,15.8551040587 31.6055660829,16.4427131414 30.7216128654,16.3088003525 31.3954240345,16.8964094352 30.5114708171,16.7624966463 31.1852819862,17.3501057289 30.3003414397,17.2672272515 31.03531018,17.7762723148 30.1419484797,17.7414757915 30.87691722,18.2505208547 29.9835555196,18.2157243314 30.71852426,18.7247693947 29.8239034379,18.7347858108 30.6066325287,19.1668055976 29.7143382053,19.2226336018 30.4970672961,19.6546533886 29.6047729726,19.7104813929 30.3875020634,20.1425011797 29.4952077399,20.198329184 30.3025612303,20.5889047783 29.4210124304,20.7378263651 30.2446630067,21.0855412682 29.3631142067,21.234462855 30.186764783,21.5821777582 29.305215983,21.731099345 30.1288665594,22.0788142481 29.26142958,22.2793910766 30.1203774468,22.5274122205 29.2625818726,22.7793897563 30.1215297395,23.0274109001 29.2637341652,23.279388436 30.1226820321,23.5274095798 29.2648864578,23.7793871156 30.1323844921,23.9659878493 29.3186581741,24.3363328304 30.2039859393,24.4608345328 29.3902596212,24.8311795139 30.2755873864,24.9556812164 29.4618610683,25.3260261975 30.3471888335,25.4505278999 29.5582701833,25.891541676 30.4517920989,25.8611358835 29.7143305975,26.3665628909 30.607852513,26.3361570984 29.8703910117,26.8415841058 30.7639129272,26.8111783133 30.0264514259,27.3166053206 30.8867208024,27.2014971141 30.2722217612,27.8508790157 31.1393073095,27.6330061683 30.5248082683,28.2823880699 31.3918938166,28.0645152225 30.7773947754,28.7138971241 31.6444803238,28.4960242767 31.0857871969,29.2203941995 31.8851385789,28.8199653122 31.4258044449,29.5869842683 32.2251558269,29.186555381 31.835854739,29.986733919 32.5543462317,29.4546851424 32.2338999063,30.2893228352 32.952391399,29.7572740587 32.7255738813,30.5996583916 33.3270204308,29.9381691825 33.1748178851,30.8191574406 33.7762644347,30.1576682314 33.7338206657,31.0487839587 34.1526964836,30.2589428513 34.2234317228,31.1501793248 34.6423075406,30.3603382174 34.7130427798,31.2515746909 35.0099237576,30.4370178994 35.3310457463,31.2713958678 35.5081615654,30.3950763414 35.8292835542,31.2294543097 36.0063993733,30.3531347833 36.327521362,31.1875127517 36.3842489693,30.329599849 36.9262513602,31.040612742 36.8507884806,30.1497641131 37.3927908715,30.8607770061 37.3173279918,29.9699283772 37.8593303827,30.6809412702 37.7838675031,29.7900926414 38.325869894,30.5011055343 38.1441640168,29.6301199856 38.8401482349,30.1912900969 38.5543260579,29.3441705015 39.2503102761,29.9053406128 38.9644880991,29.0582210174 39.6604723172,29.6193911287 39.3746501402,28.7722715333 40.0706343584,29.3334416446 39.7848121813,28.4863220492 40.4807963995,29.0474921605 40.1147869632,28.2243238501 40.8996558514,28.652443873 40.4346932496,27.8944373141 41.2561686131,28.2472604325 40.7526084725,27.5085229213 41.5740838359,27.8613460398 41.0705236953,27.1226085286 41.8919990588,27.475431647 41.3884389181,26.7366941358 42.2190336174,27.0261859314 41.6223978624,26.3603543448 42.4832463387,26.6016960665 41.8866105837,25.93586448 42.74745906,26.1772062017 42.1508233051,25.5113746152 43.0116717813,25.7527163369 42.4150360264,25.0868847503 43.2758845026,25.328226472 42.6410539426,24.7015390294 43.5249586256,24.8357718015 42.8513602156,24.247918837 43.7352648986,24.382151609 43.0616664886,23.7942986446 43.9455711716,23.9285314166 43.2349244378,23.3713319914 44.1277518508,23.4178630167 43.3995346792,22.8992054449 44.2923620922,22.9457364703 43.5641449207,22.4270788985 44.4569723337,22.4736099238 43.6923593658,21.9937448178 44.5848793037,21.9416479241 43.8039632997,21.5063593755 44.6964832375,21.4542624818 43.9155672336,21.0189739332 44.8080871714,20.9668770395 44.0075462489,20.5810093961 44.8872268527,20.4214225511 44.0594256072,20.0837081397 44.939106211,19.9241212947 44.1113049655,19.5864068833 44.9909855692,19.4268200383 44.1631843237,19.0891056268 45.0324452293,18.8734923491 44.1679451456,18.6455767264 45.0196289977,18.3736566244 44.155128914,18.1457410017 45.0068127661,17.8738208998 44.1423126824,17.645905277 44.9939965345,17.3739851751 44.1294964509,17.1460695523 44.9468088975,16.8195315443 44.0595839475,16.7093597972 44.8672162938,16.3259071679 43.9799913438,16.2157354209 44.7876236902,15.8322827916 43.9003987402,15.7221110446 44.7080310865,15.3386584153 43.8208061365,15.2284866683 44.5923985883,14.7942872437 43.6984102787,14.8038176213 44.4474742826,14.3157509827 43.5534859731,14.3252813603 44.302549977,13.8372147217 43.4085616674,13.8467450993 44.1576256714,13.3586784607 43.2636373618,13.3682088383 44.0127013657,12.8801421997 43.1154334101,12.9502250994 43.7951924888,12.3695069916 42.909921636,12.4944127278 43.5896807147,11.91369462 42.7044098619,12.0386003561 43.3841689406,11.4578822484 42.4988980878,11.5827879845 43.1786571664,11.0020698767 42.2933863136,11.1269756128 42.9731453923,10.5462575051 42.0900003922,10.7287103827 42.6946569592,10.070154112 41.8309484891,10.3010515012 42.4356050561,9.64249523047 41.5718965859,9.87339261967 42.176553153,9.21483634896 41.3128446828,9.44573373816 41.9175012498,8.78717746744 41.0537927797,9.01807485664 41.6584493467,8.35951858593 40.7947408766,8.59041597513 41.3564640087,7.90391656844 40.5234088573,8.22845476396 41.0519254512,7.50736105601 40.2188702998,7.83189925153 40.7473868937,7.11080554358 39.9143317422,7.43534373909 40.4428483362,6.71425003114 39.6097931847,7.03878822666 40.1383097787,6.31769451871 39.3052546272,6.64223271423 39.8337712212,5.92113900628 39.0007160697,6.24567720179 39.4973879566,5.49503582454 38.7011222161,5.90156601554 38.9858946772,5.93093454258 39.5930035398,5.25859801032 39.2780917202,6.09533959026 39.993043906,5.55854419366 39.6781320864,6.3952857736 40.3930842721,5.858490377 40.0781724525,6.69523195694 40.7931246383,6.15843656034 40.4782128187,6.99517814028 41.1931650044,6.45838274368 40.8782531848,7.29512432363 41.6068577168,6.77761734347 41.2481890669,7.59655734453 41.9904965903,7.09827482775 41.6318279404,7.91721482881 42.3741354637,7.41893231203 42.0154668139,8.23787231309 42.7577743372,7.73958979631 42.3991056873,8.55852979736 43.1414132107,8.06024728059 42.7827445608,8.87918728164 43.5480647172,8.41074600575 43.1199887642,9.19563893105 43.902567718,8.76334723927 43.474491765,9.54824016457 44.2570707188,9.11594847279 43.8289947658,9.90084139809 44.6115737196,9.46854970631 44.1834977666,10.2534426316 44.9660767204,9.82115093983 44.5380007674,10.6060438651 45.3205797212,10.1737521733 44.8471099313,10.9332123538 45.6740493233,10.5933930375 45.1588972634,11.324094263 45.9858366554,10.9842749467 45.4706845956,11.7149761723 46.2976239876,11.375156856 45.7824719277,12.1058580815 46.6094113197,11.7660387652 46.0942592599,12.4967399907 46.9211986519,12.1569206744 46.406046592,12.8876219 47.2589310478,12.600488439 46.6498312358,13.2549373252 47.5150826325,13.029890783 46.9059828205,13.6843396693 47.7712342172,13.4592931271 47.1621344052,14.1137420134 48.027385802,13.8886954712 47.4182859899,14.5431443574 48.2835373867,14.3180978153 47.6744375746,14.9725467015 48.5396889714,14.7475001594 47.9305891593,15.4019490456 48.8208612301,15.2342831392 48.1231588171,15.7933155789 49.0119228126,15.6963388492 48.3142203996,16.2553712889 49.202984395,16.1583945593 48.505281982,16.7174269989 49.3940459775,16.6204502693 48.6963435645,17.1794827089 49.5851075599,17.0825059793 48.8874051469,17.641538419 49.7761691424,17.5445616893 49.0784667294,18.103594129 49.9672307248,18.0066173993 49.2695283118,18.565649839 50.1517043289,18.5362816194 49.3806158242,18.9887508932 50.2740703267,19.0210770093 49.502981822,19.473546283 50.3964363245,19.5058723992 49.6253478198,19.9583416729 50.5188023222,19.990667789 49.7477138175,20.4431370628 50.64116832,20.4754631789 49.8700798153,20.9279324526 50.7635343178,20.9602585688 49.9924458131,21.4127278425 50.8859003155,21.4450539587 50.1148118108,21.8975232324 51.0082663133,21.9298493485 50.1995526862,22.3304472139 51.0805732815,22.4824624643 50.2557071647,22.8272838893 51.13672776,22.9792991396 50.3118616432,23.3241205646 51.1928822386,23.476135815 50.3680161218,23.82095724 51.2490367171,23.9729724904 50.4241706003,24.3177939154 51.3051911957,24.4698091657 50.4803250789,24.8146305907 51.3613456742,24.9666458411 50.5364795574,25.3114672661 51.4175001527,25.4634825165 50.592634036,25.8083039415 51.4736546313,25.9603191918 50.6487885145,26.3051406168 51.498249325,26.5312173226 50.6267949098,26.7308998906 51.4691858078,27.0303719274 50.5977313926,27.2300544953 51.4401222905,27.5295265321 50.5686678753,27.7292091001 51.4110587733,28.0286811368 50.5396043581,28.2283637048 51.381995256,28.5278357415 50.5105408408,28.7275183095 51.3529317388,29.0269903462 50.4659021913,29.1883452231 51.2797440814,29.558436163 50.3944552254,29.6832142346 51.2082971154,30.0533051745 50.3230082594,30.1780832461 51.1368501494,30.5481741859 50.2515612934,30.6729522575 51.0654031834,31.0430431974 50.1801143274,31.167821269 50.9939562174,31.5379122088 50.1076493894,31.623954679 50.8857026047,32.064339874 49.9928611141,32.1105999907 50.7709143294,32.5509851856 49.8780728388,32.5972453023 50.6561260541,33.0376304972 49.7632845635,33.0838906139 50.5413377788,33.5242758088 49.6484962882,33.5705359255 50.4265495035,34.0109211204 49.5413224754,34.018644818 50.2760102672,34.5280952811 49.3826678998,34.4928059015 50.1173556915,35.0022563646 49.2240133241,34.9669669849 49.9587011158,35.4764174481 49.0653587484,35.4411280684 49.8000465402,35.9505785315 48.9067041728,35.9152891518 49.6413919645,36.424739615 48.7588138727,36.3503077078 49.442362903,36.926559952 48.5562927365,36.8074566953 49.2398417668,37.3837089395 48.3537716003,37.2646056829 49.0373206306,37.8408579271 48.151250464,37.7217546705 48.8347994943,38.2980069146 47.9487293278,38.178903658 48.6322783581,38.7551559022 47.7555057504,38.5942308375 48.3801356482,39.2338740323 47.5097327591,39.0296566569 48.1343626569,39.6692998517 47.2639597678,39.4650824763 47.8885896655,40.104725671 47.0181867764,39.9005082957 47.6428166742,40.5401514904 46.7724137851,40.3359341151 47.3970436829,40.9755773098 46.5311378393,40.7238255471 47.0893004538,41.4222240161 46.2434216947,41.1327502683 46.8015843092,41.8311487373 45.9557055502,41.5416749895 46.5138681647,42.2400734585 45.6679894056,41.9505997107 46.2261520201,42.6489981797 45.380273261,42.3595244319 45.902808604,43.0852383824 45.0905463462,42.711693271 45.5752075129,43.4629651786 44.7629452551,43.0894200672 45.2476064218,43.8406919748 44.435344164,43.4671468634 44.9200053308,44.218418771 44.1077430729,43.8448736596 44.5924042397,44.5961455672 43.8087903925,44.1889203528 44.2137368548,44.985992676 43.4441305475,44.5310068988 43.8490770098,45.328079222 43.0794707025,44.8730934447 43.4844171649,45.6701657679 42.7148108576,45.2151799907 43.1197573199,46.0122523138 42.3501510126,45.5572665366 42.7550974749,46.3543388598 42.0060540404,45.8546659807 42.3261976551,46.6894198317 41.6078991624,46.157110522 41.928042777,46.991864373 41.2097442844,46.4595550634 41.529887899,47.2943089143 40.8115894064,46.7619996047 41.131733021,47.5967534556 40.4134345283,47.064444146 40.6894993293,47.9138268156 40.0304207459,47.3097396143 40.2620644863,48.1732482149 39.6029859029,47.5691610137 39.8346296433,48.4326696143 39.1755510599,47.828582413 39.4071948003,48.6920910136 38.7481162169,48.0880038124 38.9797599573,48.951512413 38.358585063,48.3239975799 38.4996141615,49.206843387 37.9065962818,48.5377875447 38.0476253803,49.4206333518 37.4546075005,48.7515775096 37.595636599,49.6344233167 37.0026187193,48.9653674744 37.1436478178,49.8482132815 36.550629938,49.1791574393 36.6916590365,50.0620032464 36.1335306627,49.3622055861 36.1834996706,50.254847185 35.6620415404,49.5286327923 35.7120105483,50.4212743911 35.190552418,49.6950599984 35.2405214259,50.5877015973 34.7190632957,49.8614872046 34.7690323035,50.7541288034 34.2475741733,50.0279144107 34.2975431812,50.9205560096 33.8110292196,50.160496449 33.7711311037,51.0536448499 33.3252140385,50.2787487945 33.2853159225,51.1718971954 32.8393988574,50.39700114 32.7995007414,51.2901495409 32.3535836762,50.5152534855 32.3136855602,51.4084018864 31.8677684951,50.633505831 31.8278703791,51.5266542319 31.4188312207,50.7209110898 31.291753979,51.6058728406 30.923778291,50.7910723627 30.7967010493,51.6760341135 30.4287253613,50.8612336356 30.3016481195,51.7461953864 29.9336724315,50.9313949086 29.8065951898,51.8163566594 29.4386195018,51.0015561815 29.3115422601,51.8865179323 28.9825151601,51.0512547211 28.7722092082,51.9202065795 28.4830429571,51.0742226524 28.2727370052,51.9431745109 27.9835707541,51.0971905837 27.7732648022,51.9661424422 27.4840985511,51.1201585151 27.2737925992,51.9891103735 26.9846263481,51.1431264464 26.7743203962,52.0120783049 26.5271835143,51.1639230039 26.2329067349,52.0081428229 26.027859335,51.1379350951 25.7335825556,51.9821549141 25.5285351557,51.1119471863 25.2342583763,51.9561670053 25.0292109764,51.0859592775 24.7349341969,51.9301790965 24.5298867971,51.0599713687 24.2356100176,51.9041911877 24.0305626178,51.0339834599 23.6934807588,51.8568933947 23.5802400021,50.9700549332 23.1995839582,51.7790091358 23.0863432015,50.8921706744 22.7056871575,51.701124877 22.5924464009,50.8142864155 22.2117903569,51.6232406181 22.0985496002,50.7364021566 21.7178935563,51.5453563593 21.6046527996,50.6585178978 21.1826667197,51.4475368569 21.1619866834,50.5537369565 20.6995071487,51.3188634858 20.6788271124,50.4250635855 20.2163475777,51.1901901147 20.1956675414,50.2963902144 19.7331880068,51.0615167436 19.7125079705,50.1677168433 19.2500284358,50.9328433725 19.2293483995,50.0390434722 18.7278658241,50.7813242902 18.7990760888,49.8901256457 18.260473324,50.6037172568 18.3316835887,49.7125186123 17.7930808239,50.4261102234 17.8642910886,49.5349115789 17.3256883238,50.24850319 17.3968985885,49.3573045455 16.8582958237,50.0708961566 16.9295060885,49.1796975122 16.3558074935,49.8648086074 16.5170417929,48.9854284697 15.9088394063,49.6407114488 16.0700737056,48.7613313112 15.4618713191,49.4166142903 15.6231056184,48.5372341527 15.0149032318,49.1925171318 15.1761375312,48.3131369942 14.5679351446,48.9684199733 14.729169444,48.0890398357 14.091609421,48.7088579006 14.3400594083,47.8500339783 13.6693182706,48.4411450101 13.9177682579,47.5823210877 13.2470271202,48.1734321196 13.4954771075,47.3146081972 12.8247359698,47.9057192291 13.0731859571,47.0468953067 12.4024448194,47.6380063386 12.6508948067,46.7791824162 11.9582932779,47.3275804158 12.2904424784,46.4975305171 11.564541687,47.0194251106 11.8966908875,46.1893752119 11.1707900961,46.7112698055 11.5029392966,45.8812199068 10.7770385052,46.4031145003 11.1091877057,45.5730646016 10.3832869143,46.0949591951 10.7501802156,45.2890387383 9.976677723,45.7373687726 10.3884848616,44.9438192743 9.61498236901,45.3921493085 10.0267895076,44.5985998102 9.25328701502,45.0469298445 9.66509415365,44.2533803462 8.89159166103,44.7017103805 9.30339879966,43.9081608821 8.52989630705,44.3564909164 8.97894175887,43.5851905572 8.16551134638,43.9561850178 8.65252755612,43.2064376355 7.83909714362,43.5774320961 8.32611335336,42.8276847138 7.51268294086,43.1986791744 7.9996991506,42.4489317922 7.18626873811,42.8199262527 7.67328494785,42.0701788705 6.85985453535,42.441173331 7.38726605544,41.7127483387 6.54169650943,42.0031240756 7.09911394465,41.3041307075 6.25354439864,41.5945064445 6.81096183386,40.8955130764 5.96539228785,41.1858888133 6.52280972308,40.4868954452 5.67724017707,40.7772711821 6.23465761229,40.078277814 5.36759787995,40.3328885097 5.99023705036,39.6913073463 5.12047297584,39.89822854 5.74311214625,39.2566473766 4.87334807173,39.4635685704 5.49598724215,38.821987407 4.62622316763,39.0289086007 5.24886233804,38.3873274373 4.37909826352,38.5942486311 5.00173743393,37.9526674677 4.11901118559,38.1191764868 4.80126158852,37.5413873268 3.91546171627,37.6624844451 4.59771211919,37.084695285 3.71191224694,37.2057924033 4.39416264987,36.6280032433 3.50836277762,36.7491003616 4.19061318055,36.1713112016 3.30481330829,36.2924083198 3.98706371122,35.7146191598 3.09618483363,35.7923868863 3.8319193269,35.2844492118 2.93850623839,35.3179003553 3.67424073166,34.8099626808 2.78082764314,34.8434138244 3.51656213641,34.3354761499 2.62314904789,34.3689272934 3.35888354116,33.8609896189 2.46547045264,33.8944407625 3.20120494591,33.386503088 2.30912753614,33.3753429441 3.09161597452,32.9428874325 2.19929070659,32.8875562301 2.98177914496,32.4551007185 2.08945387703,32.3997695162 2.87194231541,31.9673140045 1.97961704748,31.9119828022 2.76210548586,31.4795272906 1.86978021793,31.4241960882 2.65226865631,30.9917405766 1.7652151902,30.8918368858 2.58706663714,30.5398906898 1.7047636174,30.3955047241 2.52661506433,30.043558528 1.64431204459,29.8991725623 2.46616349153,29.5472263663 1.58386047179,29.4028404006 2.40571191873,29.0508942045 1.52340889899,28.9065082388 2.34526034592,28.5545620428 1.4685252389,28.3663211258 2.32168879606,28.0990799043 1.45845273503,27.866422584 2.31161629218,27.5991813625 1.44838023116,27.3665240422 2.30154378831,27.0992828206 1.43830772729,26.8666255003 2.29147128444,26.5993842788 1.42823522341,26.3667269585 2.28139878057,26.099485737 1.41816271954,25.8668284167 1.8472011,25.855129"
       transform="matrix(0.76687306,0,0,0.76687306,-0.29008541,12.530005)" />
  </g>
</svg>
