<?xml version="1.0" encoding="UTF-8" standalone="no"?>
<!-- Generator: Adobe Illustrator 13.0.0, SVG Export Plug-In . SVG Version: 6.00 Build 14948)  -->

<svg
   xmlns:dc="http://purl.org/dc/elements/1.1/"
   xmlns:cc="http://creativecommons.org/ns#"
   xmlns:rdf="http://www.w3.org/1999/02/22-rdf-syntax-ns#"
   xmlns:svg="http://www.w3.org/2000/svg"
   xmlns="http://www.w3.org/2000/svg"
   xmlns:sodipodi="http://sodipodi.sourceforge.net/DTD/sodipodi-0.dtd"
   xmlns:inkscape="http://www.inkscape.org/namespaces/inkscape"
   version="1.1"
   id="Layer_1"
   x="0px"
   y="0px"
   width="60mm"
   height="60mm"
   viewBox="0 0 226.77166 226.77166"
   xml:space="preserve"
   sodipodi:docname="Rebel_Alliance_logo-pre-embroider.svg"
   inkscape:version="0.92.2 (unknown)"><sodipodi:namedview
     pagecolor="#ffdbff"
     bordercolor="#666666"
     borderopacity="1"
     objecttolerance="10"
     gridtolerance="10"
     guidetolerance="10"
     inkscape:pageopacity="0"
     inkscape:pageshadow="2"
     inkscape:window-width="1920"
     inkscape:window-height="1025"
     id="namedview7"
     showgrid="false"
     units="mm"
     inkscape:zoom="1.25"
     inkscape:cx="99.169938"
     inkscape:cy="103.97773"
     inkscape:window-x="0"
     inkscape:window-y="27"
     inkscape:window-maximized="1"
     inkscape:current-layer="layer3"
     inkscape:measure-start="139.228,290.074"
     inkscape:measure-end="144.569,284.701"
     fit-margin-top="0"
     fit-margin-left="0"
     fit-margin-right="0"
     fit-margin-bottom="0"
     inkscape:document-units="mm"
     showguides="true" /><metadata
     id="metadata11"><rdf:RDF><cc:Work
         rdf:about=""><dc:format>image/svg+xml</dc:format><dc:type
           rdf:resource="http://purl.org/dc/dcmitype/StillImage" /><dc:title></dc:title></cc:Work></rdf:RDF></metadata><defs
     id="defs9" /><g
     inkscape:groupmode="layer"
     id="layer2"
     inkscape:label="Outline"
     style="display:inline"
     transform="translate(0,-73.228341)"
     sodipodi:insensitive="true"><g
       id="g4"
       style="fill:none;stroke:#ff0000;stroke-width:5.03937006;stroke-linejoin:round;stroke-miterlimit:4;stroke-dasharray:none;stroke-opacity:1"
       transform="matrix(0.75000001,0,0,0.75000001,0.26113784,74.488415)"><path
         d="M 7.42,145.986 C 9.185,99.193 32.899,56.035 76.25,27.516 c 0.128,0.048 1.251,-0.361 0.738,0.61 -3.434,3.184 -65.172,76.114 -8.344,133.68 0,0 29.858,28.704 53.011,1.468 0,0 22.847,-29.577 -0.289,-74.413 0,0 -5.856,-14.64 -26.955,-23.721 l 16.992,-18.748 c 0,0 14.359,6.161 25.478,22.871 0,0 0.593,-17.593 -12.884,-36.34 l 26.345,-29.89 26.08,29.609 c 0,0 -11.993,16.991 -12.876,36.902 0,0 8.191,-13.477 25.776,-23.151 l 16.686,18.748 c 0,0 -16.045,5.287 -26.794,23.529 -9.242,16.902 -16.357,53.05 0.416,75.223 0,0 18.772,26.618 51.792,-1.571 0,0 60.712,-54.399 -6.226,-133.048 0,0 -3.658,-3.233 0.449,-1.476 29.586,21.54 65.012,49.946 68.67,120.837 -1.444,85.966 -59.012,147.334 -143.074,147.334 C 68.934,295.968 4.95,227.283 7.42,145.986"
         id="path2"
         style="fill:none;stroke:#ff0000;stroke-width:5.03937006;stroke-linejoin:round;stroke-miterlimit:4;stroke-dasharray:none;stroke-opacity:1"
         inkscape:connector-curvature="0" /></g></g><g
     inkscape:groupmode="layer"
     id="layer3"
     inkscape:label="Flag"
     style="display:inline"
     transform="translate(0,-73.228341)"><path
       embroider_angle="45"
       style="fill:#5bcefa;stroke-width:0.63508767"
       d="M 2.5984258e-7,73.22834 H 226.77166 v 45.35433 H 2.5984258e-7 Z"
       id="path11"
       inkscape:connector-curvature="0" /><path
       embroider_angle="45"
       style="fill:#f5a9b8;stroke-width:0.63508779"
       d="M 2.5984258e-7,118.58267 H 226.77166 V 163.937 H 2.5984258e-7 Z"
       id="path13"
       inkscape:connector-curvature="0" /><path
       embroider_angle="45"
       style="fill:#ffffff;stroke-width:0.63508767"
       d="M 2.5984258e-7,163.93701 H 226.77165 v 45.35433 H 2.5984258e-7 Z"
       id="path15"
       inkscape:connector-curvature="0" /><path
       embroider_angle="45"
       style="fill:#f5a9b8;stroke-width:0.63508767"
       d="M 2.5984258e-7,209.29134 H 226.77165 v 45.35433 H 2.5984258e-7 Z"
       id="path17"
       inkscape:connector-curvature="0" /><path
       embroider_angle="45"
       style="fill:#5bcefa;stroke-width:0.64140713"
       d="M 2.5984258e-7,254.64567 H 226.77165 V 300 H 2.5984258e-7 Z"
       id="path19"
       inkscape:connector-curvature="0" /><g
       style="fill:#b88100;stroke-width:7.55905528;stroke-miterlimit:4;stroke-dasharray:none;stroke:#33ce00;stroke-opacity:1"
       inkscape:label="Clip"
       id="use892"
       transform="matrix(0.75000001,0,0,0.75000001,0.26113784,74.488415)"><g
         id="g902"
         style="fill:#ffc022;stroke-width:7.55905528;stroke-miterlimit:4;stroke-dasharray:none;stroke:#33ce00;stroke-opacity:1"><path
           inkscape:connector-curvature="0"
           d="M 7.42,145.986 C 9.185,99.193 32.899,56.035 76.25,27.516 c 0.128,0.048 1.251,-0.361 0.738,0.61 -3.434,3.184 -65.172,76.114 -8.344,133.68 0,0 29.858,28.704 53.011,1.468 0,0 22.847,-29.577 -0.289,-74.413 0,0 -5.856,-14.64 -26.955,-23.721 l 16.992,-18.748 c 0,0 14.359,6.161 25.478,22.871 0,0 0.593,-17.593 -12.884,-36.34 l 26.345,-29.89 26.08,29.609 c 0,0 -11.993,16.991 -12.876,36.902 0,0 8.191,-13.477 25.776,-23.151 l 16.686,18.748 c 0,0 -16.045,5.287 -26.794,23.529 -9.242,16.902 -16.357,53.05 0.416,75.223 0,0 18.772,26.618 51.792,-1.571 0,0 60.712,-54.399 -6.226,-133.048 0,0 -3.658,-3.233 0.449,-1.476 29.586,21.54 65.012,49.946 68.67,120.837 -1.444,85.966 -59.012,147.334 -143.074,147.334 C 68.934,295.968 4.95,227.283 7.42,145.986"
           id="path900"
           style="fill:#ffc022;stroke-width:7.55905528;stroke-miterlimit:4;stroke-dasharray:none;stroke:#33ce00;stroke-opacity:1" /></g></g></g></svg>