<?xml version="1.0" encoding="UTF-8" standalone="no"?>
<svg xmlns="http://www.w3.org/2000/svg" xml:space="preserve" height="60mm" viewBox="0 0 226.77166 226.77166" width="60mm" version="1.1" y="0px" x="0px"><defs><clipPath id="rebelClip" clipPathUnits="userSpaceOnUse"><g transform="matrix(0.75 0 0 0.75 .26114 74.488)" stroke="#33ce00" stroke-width="7.5591" fill="#b88100"><g stroke="#33ce00" stroke-width="7.5591" fill="#ffc022"><path d="m7.42 145.99c1.765-46.797 25.479-89.955 68.83-118.47 0.128 0.048 1.251-0.361 0.738 0.61-3.434 3.184-65.172 76.114-8.344 133.68 0 0 29.858 28.704 53.011 1.468 0 0 22.847-29.577-0.289-74.413 0 0-5.856-14.64-26.955-23.721l16.992-18.748s14.359 6.161 25.478 22.871c0 0 0.593-17.593-12.884-36.34l26.345-29.89 26.08 29.609s-11.993 16.991-12.876 36.902c0 0 8.191-13.477 25.776-23.151l16.686 18.748s-16.045 5.287-26.794 23.529c-9.242 16.902-16.357 53.05 0.416 75.223 0 0 18.772 26.618 51.792-1.571 0 0 60.712-54.399-6.226-133.05 0 0-3.658-3.233 0.449-1.476 29.586 21.54 65.012 49.946 68.67 120.84-1.444 85.966-59.012 147.33-143.07 147.33-82.316 0-146.3-68.69-143.83-149.98" stroke="#33ce00" stroke-width="7.5591" fill="#ffc022"/></g></g></clipPath></defs><g transform="translate(0 -73.228)"><g stroke-linejoin="round" transform="matrix(0.75 0 0 0.75 .26114 74.488)" stroke="#f00" stroke-width="5.0394" fill="none"><path stroke-linejoin="round" d="m7.42 145.99c1.765-46.797 25.479-89.955 68.83-118.47 0.128 0.048 1.251-0.361 0.738 0.61-3.434 3.184-65.172 76.114-8.344 133.68 0 0 29.858 28.704 53.011 1.468 0 0 22.847-29.577-0.289-74.413 0 0-5.856-14.64-26.955-23.721l16.992-18.748s14.359 6.161 25.478 22.871c0 0 0.593-17.593-12.884-36.34l26.345-29.89 26.08 29.609s-11.993 16.991-12.876 36.902c0 0 8.191-13.477 25.776-23.151l16.686 18.748s-16.045 5.287-26.794 23.529c-9.242 16.902-16.357 53.05 0.416 75.223 0 0 18.772 26.618 51.792-1.571 0 0 60.712-54.399-6.226-133.05 0 0-3.658-3.233 0.449-1.476 29.586 21.54 65.012 49.946 68.67 120.84-1.444 85.966-59.012 147.33-143.07 147.33-82.316 0-146.3-68.69-143.83-149.98" clip-path="url(#rebelClip)" stroke="#f00" stroke-width="5.0394" fill="none"/></g></g><g transform="translate(0 -73.228)" display="none"><path d="m2.5984e-7 73.228h226.77v45.354h-226.77z" clip-path="url(#rebelClip)" embroider_angle="45" stroke-width=".63509" fill="#5bcefa"/><path d="m2.5984e-7 117.68h226.77v46.26h-226.77z" clip-path="url(#rebelClip)" embroider_angle="45" stroke-width=".64141" fill="#f5a9b8"/><path d="m2.5984e-7 163.94h226.77v45.354h-226.77z" clip-path="url(#rebelClip)" embroider_angle="45" stroke-width=".63509" fill="#fff"/><path d="m2.5984e-7 209.29h226.77v45.354h-226.77z" clip-path="url(#rebelClip)" embroider_angle="45" stroke-width=".63509" fill="#f5a9b8"/><path d="m2.5984e-7 254.65h226.77v45.35h-226.77z" clip-path="url(#rebelClip)" embroider_angle="45" stroke-width=".64141" fill="#5bcefa"/></g></svg>
