<?xml version="1.0" encoding="UTF-8" standalone="no"?>
<svg
   xmlns:dc="http://purl.org/dc/elements/1.1/"
   xmlns:cc="http://creativecommons.org/ns#"
   xmlns:rdf="http://www.w3.org/1999/02/22-rdf-syntax-ns#"
   xmlns:svg="http://www.w3.org/2000/svg"
   xmlns="http://www.w3.org/2000/svg"
   xmlns:sodipodi="http://sodipodi.sourceforge.net/DTD/sodipodi-0.dtd"
   xmlns:inkscape="http://www.inkscape.org/namespaces/inkscape"
   height="60"
   viewBox="0 0 226.772 226.772"
   width="60"
   version="1.1"
   id="svg27"
   sodipodi:docname="Rebel_Alliance_logo-3.svg"
   inkscape:version="0.92.2 (unknown)">
  <metadata
     id="metadata31">
    <rdf:RDF>
      <cc:Work
         rdf:about="">
        <dc:format>image/svg+xml</dc:format>
        <dc:type
           rdf:resource="http://purl.org/dc/dcmitype/StillImage" />
        <dc:title></dc:title>
      </cc:Work>
    </rdf:RDF>
  </metadata>
  <sodipodi:namedview
     pagecolor="#ffffff"
     bordercolor="#666666"
     borderopacity="1"
     objecttolerance="10"
     gridtolerance="10"
     guidetolerance="10"
     inkscape:pageopacity="0"
     inkscape:pageshadow="2"
     inkscape:window-width="1920"
     inkscape:window-height="1025"
     id="namedview29"
     showgrid="false"
     inkscape:document-units="mm"
     units="px"
     inkscape:zoom="3.9333333"
     inkscape:cx="-3.559322"
     inkscape:cy="30"
     inkscape:window-x="0"
     inkscape:window-y="27"
     inkscape:window-maximized="1"
     inkscape:current-layer="svg27" />
  <style
     id="style2"> .a{ fill:#ffc022; stroke-width:7.56; stroke:#33ce00; } </style>
  <defs
     id="defs11">
    <clipPath
       id="rebelClip"
       clipPathUnits="userSpaceOnUse">
      <g
         style="fill:#b88100;stroke:#33ce00;stroke-width:7.55999994"
         id="g8">
        <g
           class="a"
           id="g6"
           style="fill:#ffc022;stroke:#33ce00;stroke-width:7.55999994">
          <path
             d="M 7.42,145.99 C 9.185,99.193 32.899,56.035 76.25,27.52 c 0.128,0.048 1.251,-0.361 0.738,0.61 -3.434,3.184 -65.172,76.114 -8.344,133.68 0,0 29.858,28.704 53.011,1.468 0,0 22.847,-29.577 -0.289,-74.413 0,0 -5.856,-14.64 -26.955,-23.721 l 16.992,-18.748 c 0,0 14.359,6.161 25.478,22.871 0,0 0.593,-17.593 -12.884,-36.34 l 26.345,-29.89 26.08,29.609 c 0,0 -11.993,16.991 -12.876,36.902 0,0 8.191,-13.477 25.776,-23.151 l 16.686,18.748 c 0,0 -16.045,5.287 -26.794,23.529 -9.242,16.902 -16.357,53.05 0.416,75.223 0,0 18.772,26.618 51.792,-1.571 0,0 60.712,-54.399 -6.226,-133.05 0,0 -3.658,-3.233 0.449,-1.476 29.586,21.54 65.012,49.946 68.67,120.84 -1.444,85.966 -59.012,147.33 -143.07,147.33 -82.316,0 -146.3,-68.69 -143.83,-149.98"
             class="a"
             id="path4"
             inkscape:connector-curvature="0"
             style="fill:#ffc022;stroke:#33ce00;stroke-width:7.55999994" />
        </g>
      </g>
    </clipPath>
  </defs>
  <path
     inkscape:connector-curvature="0"
     id="path13"
     clip-path="url(#rebelClip)"
     style="fill:none;stroke:#ff0000;stroke-width:5.03999996;stroke-linejoin:round"
     d="M 7.42,145.99 C 9.185,99.193 32.899,56.035 76.25,27.52 c 0.128,0.048 1.251,-0.361 0.738,0.61 -3.434,3.184 -65.172,76.114 -8.344,133.68 0,0 29.858,28.704 53.011,1.468 0,0 22.847,-29.577 -0.289,-74.413 0,0 -5.856,-14.64 -26.955,-23.721 l 16.992,-18.748 c 0,0 14.359,6.161 25.478,22.871 0,0 0.593,-17.593 -12.884,-36.34 l 26.345,-29.89 26.08,29.609 c 0,0 -11.993,16.991 -12.876,36.902 0,0 8.191,-13.477 25.776,-23.151 l 16.686,18.748 c 0,0 -16.045,5.287 -26.794,23.529 -9.242,16.902 -16.357,53.05 0.416,75.223 0,0 18.772,26.618 51.792,-1.571 0,0 60.712,-54.399 -6.226,-133.05 0,0 -3.658,-3.233 0.449,-1.476 29.586,21.54 65.012,49.946 68.67,120.84 -1.444,85.966 -59.012,147.33 -143.07,147.33 -82.316,0 -146.3,-68.69 -143.83,-149.98"
     transform="matrix(0.7638902,0,0,0.7638902,1.7344232,69.881418)" />
  <path
     d="m 0,73.228 h 226.77 v 45.354 H 0 Z"
     embroider_angle="45"
     style="fill:#5bcefa;stroke-width:0.63499999"
     clip-path="url(#rebelClip)"
     id="path17"
     inkscape:connector-curvature="0" />
  <path
     d="m 0,117.68 h 226.77 v 46.26 H 0 Z"
     embroider_angle="45"
     style="fill:#f5a9b8;stroke-width:0.64099997"
     clip-path="url(#rebelClip)"
     id="path19"
     inkscape:connector-curvature="0" />
  <path
     d="m 0,163.94 h 226.77 v 45.354 H 0 Z"
     embroider_angle="45"
     style="fill:#ffffff;stroke-width:0.63499999"
     clip-path="url(#rebelClip)"
     id="path21"
     inkscape:connector-curvature="0" />
  <path
     d="m 0,209.29 h 226.77 v 45.354 H 0 Z"
     embroider_angle="45"
     style="fill:#f5a9b8;stroke-width:0.63499999"
     clip-path="url(#rebelClip)"
     id="path23"
     inkscape:connector-curvature="0" />
  <path
     d="M 0,254.65 H 226.77 V 300 H 0 Z"
     embroider_angle="45"
     style="fill:#5bcefa;stroke-width:0.64099997"
     clip-path="url(#rebelClip)"
     id="path25"
     inkscape:connector-curvature="0" />
</svg>
